<mxfile host="app.diagrams.net" agent="Mozilla/5.0 (Windows NT 10.0; Win64; x64) AppleWebKit/537.36 (KHTML, like Gecko) Chrome/136.0.0.0 Safari/537.36" version="27.0.3">
  <diagram name="‫עמוד-1‬" id="iyFqtjStgCoCIeWJ1u3A">
    <mxGraphModel dx="1426" dy="1920" grid="1" gridSize="10" guides="1" tooltips="1" connect="1" arrows="1" fold="1" page="1" pageScale="1" pageWidth="827" pageHeight="1169" math="0" shadow="0">
      <root>
        <mxCell id="0" />
        <mxCell id="1" parent="0" />
        <mxCell id="uXRnew0ocxSsuqCzYNjW-1" value="" style="whiteSpace=wrap;html=1;aspect=fixed;align=right;" vertex="1" parent="1">
          <mxGeometry x="290" y="1020" width="210" height="210" as="geometry" />
        </mxCell>
        <mxCell id="uXRnew0ocxSsuqCzYNjW-2" value="interface&lt;div&gt;&lt;b&gt;&lt;font style=&quot;font-size: 13px;&quot;&gt;interBankBranch&lt;/font&gt;&lt;/b&gt;&lt;/div&gt;" style="text;html=1;align=center;verticalAlign=middle;whiteSpace=wrap;rounded=0;" vertex="1" parent="1">
          <mxGeometry x="290" y="1060" width="210" height="30" as="geometry" />
        </mxCell>
        <mxCell id="uXRnew0ocxSsuqCzYNjW-3" value="+ AddAccount (BankAccount account)" style="text;html=1;align=left;verticalAlign=middle;whiteSpace=wrap;rounded=0;" vertex="1" parent="1">
          <mxGeometry x="290" y="1110" width="210" height="30" as="geometry" />
        </mxCell>
        <mxCell id="uXRnew0ocxSsuqCzYNjW-4" value="" style="whiteSpace=wrap;html=1;aspect=fixed;" vertex="1" parent="1">
          <mxGeometry x="304" y="-1130" width="220" height="220" as="geometry" />
        </mxCell>
        <mxCell id="uXRnew0ocxSsuqCzYNjW-5" value="&lt;h1 style=&quot;margin-top: 0px;&quot;&gt;BankAccount&lt;/h1&gt;&lt;div&gt;&lt;b&gt;&quot;abstract&quot;&lt;/b&gt;&lt;/div&gt;&lt;div&gt;&lt;br&gt;&lt;/div&gt;&lt;div style=&quot;text-align: left;&quot;&gt;&lt;span style=&quot;font-weight: 400;&quot;&gt;- accountNumber: int&lt;/span&gt;&lt;/div&gt;&lt;div style=&quot;text-align: left;&quot;&gt;&lt;span style=&quot;font-weight: 400;&quot;&gt;- balance: double&lt;/span&gt;&lt;/div&gt;&lt;div style=&quot;text-align: left;&quot;&gt;&lt;span style=&quot;font-weight: 400;&quot;&gt;- customerOwner: Customer&lt;/span&gt;&lt;/div&gt;&lt;div style=&quot;text-align: left;&quot;&gt;&lt;span style=&quot;font-weight: 400;&quot;&gt;&lt;br&gt;&lt;/span&gt;&lt;/div&gt;&lt;div style=&quot;text-align: left;&quot;&gt;&lt;span style=&quot;font-weight: 400;&quot;&gt;&lt;br&gt;&lt;/span&gt;&lt;/div&gt;&lt;div style=&quot;text-align: left;&quot;&gt;&lt;span style=&quot;font-weight: 400;&quot;&gt;+ deposit( amount: double): void&lt;/span&gt;&lt;/div&gt;&lt;div style=&quot;text-align: left;&quot;&gt;&lt;span style=&quot;font-weight: 400;&quot;&gt;+ withdraw( amount: double): virtual&amp;nbsp; &amp;nbsp; &amp;nbsp; &amp;nbsp; &amp;nbsp;void&lt;/span&gt;&lt;/div&gt;&lt;div style=&quot;text-align: left;&quot;&gt;&lt;span style=&quot;font-weight: 400;&quot;&gt;+ printBlanace(): virtual void&lt;/span&gt;&lt;/div&gt;" style="text;html=1;whiteSpace=wrap;overflow=hidden;rounded=0;align=center;" vertex="1" parent="1">
          <mxGeometry x="310" y="-1130" width="210" height="220" as="geometry" />
        </mxCell>
        <mxCell id="uXRnew0ocxSsuqCzYNjW-18" value="" style="edgeStyle=orthogonalEdgeStyle;rounded=0;orthogonalLoop=1;jettySize=auto;html=1;" edge="1" parent="1" source="uXRnew0ocxSsuqCzYNjW-11" target="uXRnew0ocxSsuqCzYNjW-5">
          <mxGeometry relative="1" as="geometry">
            <Array as="points">
              <mxPoint x="415" y="-850" />
              <mxPoint x="415" y="-850" />
            </Array>
          </mxGeometry>
        </mxCell>
        <mxCell id="uXRnew0ocxSsuqCzYNjW-11" value="" style="whiteSpace=wrap;html=1;aspect=fixed;" vertex="1" parent="1">
          <mxGeometry x="336.5" y="-830" width="157" height="157" as="geometry" />
        </mxCell>
        <mxCell id="uXRnew0ocxSsuqCzYNjW-16" value="&lt;h1 style=&quot;margin-top: 0px;&quot;&gt;&lt;font style=&quot;font-size: 17px;&quot;&gt;CheckingAccount&lt;/font&gt;&lt;/h1&gt;&lt;p&gt;- overDraftLimit: double&lt;/p&gt;&lt;p&gt;+ withdraw( amount:&amp;nbsp; &amp;nbsp; &amp;nbsp; &amp;nbsp; &amp;nbsp; &amp;nbsp; &amp;nbsp; &amp;nbsp;double) : void&lt;/p&gt;&lt;p&gt;+ printBalance(): override&amp;nbsp; &amp;nbsp; &amp;nbsp; &amp;nbsp;void&lt;/p&gt;&lt;p&gt;&lt;br&gt;&lt;/p&gt;&lt;p&gt;&lt;br&gt;&lt;/p&gt;" style="text;html=1;whiteSpace=wrap;overflow=hidden;rounded=0;" vertex="1" parent="1">
          <mxGeometry x="338.5" y="-830" width="151.5" height="160" as="geometry" />
        </mxCell>
        <mxCell id="uXRnew0ocxSsuqCzYNjW-17" style="edgeStyle=orthogonalEdgeStyle;rounded=0;orthogonalLoop=1;jettySize=auto;html=1;exitX=0.5;exitY=1;exitDx=0;exitDy=0;entryX=0.5;entryY=1;entryDx=0;entryDy=0;" edge="1" parent="1" source="uXRnew0ocxSsuqCzYNjW-11" target="uXRnew0ocxSsuqCzYNjW-11">
          <mxGeometry relative="1" as="geometry" />
        </mxCell>
        <mxCell id="uXRnew0ocxSsuqCzYNjW-23" style="edgeStyle=orthogonalEdgeStyle;rounded=0;orthogonalLoop=1;jettySize=auto;html=1;entryX=0;entryY=0.5;entryDx=0;entryDy=0;" edge="1" parent="1" source="uXRnew0ocxSsuqCzYNjW-19" target="uXRnew0ocxSsuqCzYNjW-4">
          <mxGeometry relative="1" as="geometry">
            <Array as="points">
              <mxPoint x="256" y="-760" />
              <mxPoint x="256" y="-1020" />
            </Array>
          </mxGeometry>
        </mxCell>
        <mxCell id="uXRnew0ocxSsuqCzYNjW-19" value="" style="whiteSpace=wrap;html=1;aspect=fixed;" vertex="1" parent="1">
          <mxGeometry x="50" y="-837" width="157" height="157" as="geometry" />
        </mxCell>
        <mxCell id="uXRnew0ocxSsuqCzYNjW-24" value="&lt;h1 style=&quot;text-align: center; margin-top: 0px;&quot;&gt;&lt;span style=&quot;background-color: transparent; color: light-dark(rgb(0, 0, 0), rgb(255, 255, 255));&quot;&gt;&lt;font style=&quot;font-size: 17px;&quot;&gt;Customer&lt;/font&gt;&lt;/span&gt;&lt;/h1&gt;&lt;div style=&quot;&quot;&gt;- id: int&lt;/div&gt;&lt;div&gt;- name: string&lt;/div&gt;&lt;div&gt;- phoneNum: int&lt;/div&gt;&lt;div&gt;&lt;br&gt;&lt;/div&gt;&lt;div&gt;+ printDetails(): void&lt;/div&gt;" style="text;html=1;whiteSpace=wrap;overflow=hidden;rounded=0;align=left;" vertex="1" parent="1">
          <mxGeometry x="58.5" y="-828.5" width="140" height="140" as="geometry" />
        </mxCell>
        <mxCell id="uXRnew0ocxSsuqCzYNjW-26" value="" style="whiteSpace=wrap;html=1;aspect=fixed;" vertex="1" parent="1">
          <mxGeometry x="53.5" y="-640" width="190" height="190" as="geometry" />
        </mxCell>
        <mxCell id="uXRnew0ocxSsuqCzYNjW-34" style="edgeStyle=orthogonalEdgeStyle;rounded=0;orthogonalLoop=1;jettySize=auto;html=1;" edge="1" parent="1" source="uXRnew0ocxSsuqCzYNjW-27">
          <mxGeometry relative="1" as="geometry">
            <mxPoint x="340" y="-544" as="targetPoint" />
          </mxGeometry>
        </mxCell>
        <mxCell id="uXRnew0ocxSsuqCzYNjW-27" value="&lt;h1 style=&quot;margin-top: 0px;&quot;&gt;&lt;span style=&quot;text-align: left; background-color: transparent; color: light-dark(rgb(0, 0, 0), rgb(255, 255, 255));&quot;&gt;&lt;font style=&quot;font-size: 17px;&quot;&gt;BankBranch&lt;/font&gt;&lt;/span&gt;&lt;span style=&quot;font-weight: 400; text-align: left; background-color: transparent; color: light-dark(rgb(0, 0, 0), rgb(255, 255, 255)); font-size: 12px;&quot;&gt;&lt;br&gt;&lt;/span&gt;&lt;/h1&gt;&lt;div style=&quot;text-align: left;&quot;&gt;&lt;span style=&quot;background-color: transparent; color: light-dark(rgb(0, 0, 0), rgb(255, 255, 255));&quot;&gt;- branchNumber: int&lt;/span&gt;&lt;/div&gt;&lt;div style=&quot;text-align: left;&quot;&gt;&lt;span style=&quot;background-color: transparent; color: light-dark(rgb(0, 0, 0), rgb(255, 255, 255));&quot;&gt;- address: string&lt;/span&gt;&lt;/div&gt;&lt;div style=&quot;text-align: left;&quot;&gt;&lt;span style=&quot;background-color: transparent; color: light-dark(rgb(0, 0, 0), rgb(255, 255, 255));&quot;&gt;&lt;br&gt;&lt;/span&gt;&lt;/div&gt;&lt;div style=&quot;text-align: left;&quot;&gt;&lt;span style=&quot;background-color: transparent; color: light-dark(rgb(0, 0, 0), rgb(255, 255, 255));&quot;&gt;+ addAccount (account:&amp;nbsp; &amp;nbsp; &amp;nbsp; &amp;nbsp; &amp;nbsp; &amp;nbsp; &amp;nbsp; &amp;nbsp; &amp;nbsp; &amp;nbsp; &amp;nbsp; &amp;nbsp; &amp;nbsp; &amp;nbsp;BankAccount):&amp;nbsp; void&lt;/span&gt;&lt;/div&gt;&lt;div style=&quot;text-align: left;&quot;&gt;&lt;span style=&quot;background-color: transparent; color: light-dark(rgb(0, 0, 0), rgb(255, 255, 255));&quot;&gt;&lt;br&gt;&lt;/span&gt;&lt;/div&gt;&lt;div style=&quot;text-align: left;&quot;&gt;&lt;span style=&quot;background-color: transparent; color: light-dark(rgb(0, 0, 0), rgb(255, 255, 255));&quot;&gt;+ printAccounts(): void&lt;/span&gt;&lt;/div&gt;" style="text;html=1;whiteSpace=wrap;overflow=hidden;rounded=0;align=center;" vertex="1" parent="1">
          <mxGeometry x="57" y="-629" width="186.5" height="170" as="geometry" />
        </mxCell>
        <mxCell id="uXRnew0ocxSsuqCzYNjW-28" value="" style="whiteSpace=wrap;html=1;aspect=fixed;" vertex="1" parent="1">
          <mxGeometry x="343" y="-618" width="157" height="157" as="geometry" />
        </mxCell>
        <mxCell id="uXRnew0ocxSsuqCzYNjW-31" value="" style="edgeStyle=orthogonalEdgeStyle;rounded=0;orthogonalLoop=1;jettySize=auto;html=1;" edge="1" parent="1" source="uXRnew0ocxSsuqCzYNjW-29" target="uXRnew0ocxSsuqCzYNjW-16">
          <mxGeometry relative="1" as="geometry" />
        </mxCell>
        <mxCell id="uXRnew0ocxSsuqCzYNjW-29" value="&lt;h1 style=&quot;margin-top: 0px;&quot;&gt;&lt;font style=&quot;font-size: 17px;&quot;&gt;interBankBranch&lt;/font&gt;&lt;/h1&gt;&lt;div style=&quot;&quot;&gt;&lt;b&gt;&lt;span style=&quot;font-size: 17px;&quot;&gt;&quot;&lt;/span&gt;&lt;font&gt;interface&lt;/font&gt;&lt;span style=&quot;font-size: 17px;&quot;&gt;&quot;&lt;/span&gt;&lt;/b&gt;&lt;/div&gt;&lt;p style=&quot;text-align: left;&quot;&gt;+ addAccount( account :&amp;nbsp; &amp;nbsp; &amp;nbsp; &amp;nbsp; &amp;nbsp;BankAccount) : void&lt;/p&gt;&lt;p style=&quot;text-align: left;&quot;&gt;+ printAccounts() : void&lt;/p&gt;&lt;p style=&quot;text-align: left;&quot;&gt;&lt;br&gt;&lt;/p&gt;&lt;p&gt;&lt;br&gt;&lt;/p&gt;" style="text;html=1;whiteSpace=wrap;overflow=hidden;rounded=0;align=center;" vertex="1" parent="1">
          <mxGeometry x="346.5" y="-618" width="150" height="159" as="geometry" />
        </mxCell>
        <mxCell id="uXRnew0ocxSsuqCzYNjW-30" style="edgeStyle=orthogonalEdgeStyle;rounded=0;orthogonalLoop=1;jettySize=auto;html=1;exitX=0.5;exitY=1;exitDx=0;exitDy=0;" edge="1" parent="1" source="uXRnew0ocxSsuqCzYNjW-28" target="uXRnew0ocxSsuqCzYNjW-28">
          <mxGeometry relative="1" as="geometry" />
        </mxCell>
      </root>
    </mxGraphModel>
  </diagram>
</mxfile>
